# Tiled2Unity generated file. Do not modify by hand.
# Wavefront file for 'Nuevo_mesh_0003.obj'

# Vertices (Count = 428)
v -32 -32 0
v -64 -32 0
v -64 0 0
v -32 0 0
v -32 -64 0
v -64 -64 0
v -64 -32 0
v -32 -32 0
v -64 -64 0
v -96 -64 0
v -96 -32 0
v -64 -32 0
v -544 -64 0
v -576 -64 0
v -576 -32 0
v -544 -32 0
v -640 -64 0
v -672 -64 0
v -672 -32 0
v -640 -32 0
v -672 -64 0
v -704 -64 0
v -704 -32 0
v -672 -32 0
v -704 -64 0
v -736 -64 0
v -736 -32 0
v -704 -32 0
v -736 -64 0
v -768 -64 0
v -768 -32 0
v -736 -32 0
v -768 -64 0
v -800 -64 0
v -800 -32 0
v -768 -32 0
v -32 -96 0
v -64 -96 0
v -64 -64 0
v -32 -64 0
v -64 -96 0
v -96 -96 0
v -96 -64 0
v -64 -64 0
v -512 -96 0
v -544 -96 0
v -544 -64 0
v -512 -64 0
v -544 -96 0
v -576 -96 0
v -576 -64 0
v -544 -64 0
v -576 -96 0
v -608 -96 0
v -608 -64 0
v -576 -64 0
v -608 -96 0
v -640 -96 0
v -640 -64 0
v -608 -64 0
v -672 -96 0
v -704 -96 0
v -704 -64 0
v -672 -64 0
v -704 -96 0
v -736 -96 0
v -736 -64 0
v -704 -64 0
v -736 -96 0
v -768 -96 0
v -768 -64 0
v -736 -64 0
v -768 -96 0
v -800 -96 0
v -800 -64 0
v -768 -64 0
v -352 -128 0
v -384 -128 0
v -384 -96 0
v -352 -96 0
v -384 -128 0
v -416 -128 0
v -416 -96 0
v -384 -96 0
v -416 -128 0
v -448 -128 0
v -448 -96 0
v -416 -96 0
v -448 -128 0
v -480 -128 0
v -480 -96 0
v -448 -96 0
v -480 -128 0
v -512 -128 0
v -512 -96 0
v -480 -96 0
v -512 -128 0
v -544 -128 0
v -544 -96 0
v -512 -96 0
v -544 -128 0
v -576 -128 0
v -576 -96 0
v -544 -96 0
v -576 -128 0
v -608 -128 0
v -608 -96 0
v -576 -96 0
v -608 -128 0
v -640 -128 0
v -640 -96 0
v -608 -96 0
v -640 -128 0
v -672 -128 0
v -672 -96 0
v -640 -96 0
v -672 -128 0
v -704 -128 0
v -704 -96 0
v -672 -96 0
v -704 -128 0
v -736 -128 0
v -736 -96 0
v -704 -96 0
v -736 -128 0
v -768 -128 0
v -768 -96 0
v -736 -96 0
v -512 -160 0
v -544 -160 0
v -544 -128 0
v -512 -128 0
v -544 -160 0
v -576 -160 0
v -576 -128 0
v -544 -128 0
v -576 -160 0
v -608 -160 0
v -608 -128 0
v -576 -128 0
v -608 -160 0
v -640 -160 0
v -640 -128 0
v -608 -128 0
v -640 -160 0
v -672 -160 0
v -672 -128 0
v -640 -128 0
v -672 -160 0
v -704 -160 0
v -704 -128 0
v -672 -128 0
v -704 -160 0
v -736 -160 0
v -736 -128 0
v -704 -128 0
v -736 -160 0
v -768 -160 0
v -768 -128 0
v -736 -128 0
v -416 -192 0
v -448 -192 0
v -448 -160 0
v -416 -160 0
v -480 -192 0
v -512 -192 0
v -512 -160 0
v -480 -160 0
v -512 -192 0
v -544 -192 0
v -544 -160 0
v -512 -160 0
v -544 -192 0
v -576 -192 0
v -576 -160 0
v -544 -160 0
v -608 -192 0
v -640 -192 0
v -640 -160 0
v -608 -160 0
v -640 -192 0
v -672 -192 0
v -672 -160 0
v -640 -160 0
v -672 -192 0
v -704 -192 0
v -704 -160 0
v -672 -160 0
v -224 -224 0
v -256 -224 0
v -256 -192 0
v -224 -192 0
v -480 -224 0
v -512 -224 0
v -512 -192 0
v -480 -192 0
v -512 -224 0
v -544 -224 0
v -544 -192 0
v -512 -192 0
v -544 -224 0
v -576 -224 0
v -576 -192 0
v -544 -192 0
v -640 -224 0
v -672 -224 0
v -672 -192 0
v -640 -192 0
v -672 -224 0
v -704 -224 0
v -704 -192 0
v -672 -192 0
v -224 -256 0
v -256 -256 0
v -256 -224 0
v -224 -224 0
v -544 -256 0
v -576 -256 0
v -576 -224 0
v -544 -224 0
v -576 -256 0
v -608 -256 0
v -608 -224 0
v -576 -224 0
v -608 -256 0
v -640 -256 0
v -640 -224 0
v -608 -224 0
v -192 -288 0
v -224 -288 0
v -224 -256 0
v -192 -256 0
v -224 -288 0
v -256 -288 0
v -256 -256 0
v -224 -256 0
v -320 -288 0
v -352 -288 0
v -352 -256 0
v -320 -256 0
v -544 -288 0
v -576 -288 0
v -576 -256 0
v -544 -256 0
v -608 -288 0
v -640 -288 0
v -640 -256 0
v -608 -256 0
v -64 -320 0
v -96 -320 0
v -96 -288 0
v -64 -288 0
v -96 -320 0
v -128 -320 0
v -128 -288 0
v -96 -288 0
v -192 -320 0
v -224 -320 0
v -224 -288 0
v -192 -288 0
v -224 -320 0
v -256 -320 0
v -256 -288 0
v -224 -288 0
v -608 -320 0
v -640 -320 0
v -640 -288 0
v -608 -288 0
v -32 -352 0
v -64 -352 0
v -64 -320 0
v -32 -320 0
v -96 -352 0
v -128 -352 0
v -128 -320 0
v -96 -320 0
v -160 -352 0
v -192 -352 0
v -192 -320 0
v -160 -320 0
v -192 -352 0
v -224 -352 0
v -224 -320 0
v -192 -320 0
v -224 -352 0
v -256 -352 0
v -256 -320 0
v -224 -320 0
v -256 -352 0
v -288 -352 0
v -288 -320 0
v -256 -320 0
v -320 -352 0
v -352 -352 0
v -352 -320 0
v -320 -320 0
v -352 -352 0
v -384 -352 0
v -384 -320 0
v -352 -320 0
v -384 -352 0
v -416 -352 0
v -416 -320 0
v -384 -320 0
v -416 -352 0
v -448 -352 0
v -448 -320 0
v -416 -320 0
v -32 -384 0
v -64 -384 0
v -64 -352 0
v -32 -352 0
v -64 -384 0
v -96 -384 0
v -96 -352 0
v -64 -352 0
v -96 -384 0
v -128 -384 0
v -128 -352 0
v -96 -352 0
v -128 -384 0
v -160 -384 0
v -160 -352 0
v -128 -352 0
v -160 -384 0
v -192 -384 0
v -192 -352 0
v -160 -352 0
v -192 -384 0
v -224 -384 0
v -224 -352 0
v -192 -352 0
v -224 -384 0
v -256 -384 0
v -256 -352 0
v -224 -352 0
v -256 -384 0
v -288 -384 0
v -288 -352 0
v -256 -352 0
v -288 -384 0
v -320 -384 0
v -320 -352 0
v -288 -352 0
v -320 -384 0
v -352 -384 0
v -352 -352 0
v -320 -352 0
v 0 -416 0
v -32 -416 0
v -32 -384 0
v 0 -384 0
v -32 -416 0
v -64 -416 0
v -64 -384 0
v -32 -384 0
v -64 -416 0
v -96 -416 0
v -96 -384 0
v -64 -384 0
v -96 -416 0
v -128 -416 0
v -128 -384 0
v -96 -384 0
v -128 -416 0
v -160 -416 0
v -160 -384 0
v -128 -384 0
v -192 -416 0
v -224 -416 0
v -224 -384 0
v -192 -384 0
v -224 -416 0
v -256 -416 0
v -256 -384 0
v -224 -384 0
v -256 -416 0
v -288 -416 0
v -288 -384 0
v -256 -384 0
v -288 -416 0
v -320 -416 0
v -320 -384 0
v -288 -384 0
v -704 -416 0
v -736 -416 0
v -736 -384 0
v -704 -384 0
v -736 -416 0
v -768 -416 0
v -768 -384 0
v -736 -384 0
v 0 -448 0
v -32 -448 0
v -32 -416 0
v 0 -416 0
v -32 -448 0
v -64 -448 0
v -64 -416 0
v -32 -416 0
v -64 -448 0
v -96 -448 0
v -96 -416 0
v -64 -416 0
v -192 -448 0
v -224 -448 0
v -224 -416 0
v -192 -416 0
v -224 -448 0
v -256 -448 0
v -256 -416 0
v -224 -416 0
v -256 -448 0
v -288 -448 0
v -288 -416 0
v -256 -416 0
v -288 -448 0
v -320 -448 0
v -320 -416 0
v -288 -416 0
v -704 -448 0
v -736 -448 0
v -736 -416 0
v -704 -416 0
v -736 -448 0
v -768 -448 0
v -768 -416 0
v -736 -416 0

# Texture cooridinates (Count = 68)
vt 0.09375 0.78125
vt 0.125 0.78125
vt 0.125 0.8125
vt 0.09375 0.8125
vt 0.09375 0.75
vt 0.125 0.75
vt 0.46875 0.625
vt 0.5 0.625
vt 0.5 0.65625
vt 0.46875 0.65625
vt 0.875 0.375
vt 0.90625 0.375
vt 0.90625 0.40625
vt 0.875 0.40625
vt 0.9375 0.46875
vt 0.96875 0.46875
vt 0.96875 0.5
vt 0.9375 0.5
vt 0.9375 0.40625
vt 0.96875 0.40625
vt 0.96875 0.4375
vt 0.9375 0.4375
vt 1 0.40625
vt 1 0.4375
vt 0.9375 0.375
vt 0.96875 0.375
vt 0.875 0.34375
vt 0.90625 0.34375
vt 0.96875 0.34375
vt 1 0.34375
vt 1 0.375
vt 0.34375 0.4375
vt 0.375 0.4375
vt 0.375 0.46875
vt 0.34375 0.46875
vt 0.90625 0.46875
vt 0.90625 0.5
vt 0.875 0.3125
vt 0.90625 0.3125
vt 0.96875 0.3125
vt 1 0.3125
vt 0.875 0.28125
vt 0.90625 0.28125
vt 0.75 0.3125
vt 0.78125 0.3125
vt 0.78125 0.34375
vt 0.75 0.34375
vt 0.8125 0.3125
vt 0.8125 0.34375
vt 0.75 0.28125
vt 0.78125 0.28125
vt 0.8125 0.28125
vt 0.25 0.4375
vt 0.28125 0.4375
vt 0.28125 0.46875
vt 0.25 0.46875
vt 0.90625 0.4375
vt 0.8125 0.375
vt 0.84375 0.375
vt 0.84375 0.40625
vt 0.8125 0.40625
vt 0.84375 0.34375
vt 0.75 0.375
vt 0.78125 0.375
vt 0.78125 0.40625
vt 0.75 0.40625
vt 0.84375 0.3125
vt 0.84375 0.28125

# Normal
vn 0 0 -1

# Mesh description
g Nuevo_mesh_0003

# Faces
f 1/1/1 2/2/1 3/3/1 4/4/1
f 5/5/1 6/6/1 7/2/1 8/1/1
f 9/7/1 10/8/1 11/9/1 12/10/1
f 13/11/1 14/12/1 15/13/1 16/14/1
f 17/15/1 18/16/1 19/17/1 20/18/1
f 21/19/1 22/20/1 23/21/1 24/22/1
f 25/20/1 26/23/1 27/24/1 28/21/1
f 29/25/1 30/26/1 31/20/1 32/19/1
f 33/15/1 34/16/1 35/17/1 36/18/1
f 37/7/1 38/8/1 39/9/1 40/10/1
f 41/7/1 42/8/1 43/9/1 44/10/1
f 45/20/1 46/23/1 47/24/1 48/21/1
f 49/27/1 50/28/1 51/12/1 52/11/1
f 53/29/1 54/30/1 55/31/1 56/26/1
f 57/32/1 58/33/1 59/34/1 60/35/1
f 61/36/1 62/15/1 63/18/1 64/37/1
f 65/25/1 66/26/1 67/20/1 68/19/1
f 69/25/1 70/26/1 71/20/1 72/19/1
f 73/20/1 74/23/1 75/24/1 76/21/1
f 77/25/1 78/26/1 79/20/1 80/19/1
f 81/25/1 82/26/1 83/20/1 84/19/1
f 85/25/1 86/26/1 87/20/1 88/19/1
f 89/25/1 90/26/1 91/20/1 92/19/1
f 93/25/1 94/26/1 95/20/1 96/19/1
f 97/25/1 98/26/1 99/20/1 100/19/1
f 101/38/1 102/39/1 103/28/1 104/27/1
f 105/40/1 106/41/1 107/30/1 108/29/1
f 109/25/1 110/26/1 111/20/1 112/19/1
f 113/25/1 114/26/1 115/20/1 116/19/1
f 117/25/1 118/26/1 119/20/1 120/19/1
f 121/25/1 122/26/1 123/20/1 124/19/1
f 125/20/1 126/23/1 127/24/1 128/21/1
f 129/20/1 130/23/1 131/24/1 132/21/1
f 133/42/1 134/43/1 135/39/1 136/38/1
f 137/25/1 138/26/1 139/20/1 140/19/1
f 141/36/1 142/15/1 143/18/1 144/37/1
f 145/20/1 146/23/1 147/24/1 148/21/1
f 149/25/1 150/26/1 151/20/1 152/19/1
f 153/36/1 154/15/1 155/18/1 156/37/1
f 157/26/1 158/31/1 159/23/1 160/20/1
f 161/36/1 162/15/1 163/18/1 164/37/1
f 165/25/1 166/26/1 167/20/1 168/19/1
f 169/44/1 170/45/1 171/46/1 172/47/1
f 173/45/1 174/48/1 175/49/1 176/46/1
f 177/20/1 178/23/1 179/24/1 180/21/1
f 181/22/1 182/21/1 183/16/1 184/15/1
f 185/25/1 186/26/1 187/20/1 188/19/1
f 189/11/1 190/12/1 191/13/1 192/14/1
f 193/25/1 194/26/1 195/20/1 196/19/1
f 197/50/1 198/51/1 199/45/1 200/44/1
f 201/51/1 202/52/1 203/48/1 204/45/1
f 205/25/1 206/26/1 207/20/1 208/19/1
f 209/25/1 210/26/1 211/20/1 212/19/1
f 213/27/1 214/28/1 215/12/1 216/11/1
f 217/11/1 218/12/1 219/13/1 220/14/1
f 221/36/1 222/15/1 223/18/1 224/37/1
f 225/25/1 226/26/1 227/20/1 228/19/1
f 229/44/1 230/45/1 231/46/1 232/47/1
f 233/45/1 234/48/1 235/49/1 236/46/1
f 237/53/1 238/54/1 239/55/1 240/56/1
f 241/27/1 242/28/1 243/12/1 244/11/1
f 245/25/1 246/26/1 247/20/1 248/19/1
f 249/32/1 250/33/1 251/34/1 252/35/1
f 253/36/1 254/15/1 255/18/1 256/37/1
f 257/50/1 258/51/1 259/45/1 260/44/1
f 261/51/1 262/52/1 263/48/1 264/45/1
f 265/25/1 266/26/1 267/20/1 268/19/1
f 269/13/1 270/19/1 271/22/1 272/57/1
f 273/20/1 274/23/1 275/24/1 276/21/1
f 277/13/1 278/19/1 279/22/1 280/57/1
f 281/58/1 282/59/1 283/60/1 284/61/1
f 285/59/1 286/11/1 287/14/1 288/60/1
f 289/11/1 290/12/1 291/13/1 292/14/1
f 293/25/1 294/26/1 295/20/1 296/19/1
f 297/25/1 298/26/1 299/20/1 300/19/1
f 301/25/1 302/26/1 303/20/1 304/19/1
f 305/25/1 306/26/1 307/20/1 308/19/1
f 309/19/1 310/20/1 311/21/1 312/22/1
f 313/13/1 314/19/1 315/22/1 316/57/1
f 317/13/1 318/19/1 319/22/1 320/57/1
f 321/13/1 322/19/1 323/22/1 324/57/1
f 325/20/1 326/23/1 327/24/1 328/21/1
f 329/49/1 330/62/1 331/59/1 332/58/1
f 333/62/1 334/27/1 335/11/1 336/59/1
f 337/27/1 338/28/1 339/12/1 340/11/1
f 341/25/1 342/26/1 343/20/1 344/19/1
f 345/25/1 346/26/1 347/20/1 348/19/1
f 349/13/1 350/19/1 351/22/1 352/57/1
f 353/20/1 354/23/1 355/24/1 356/21/1
f 357/13/1 358/19/1 359/22/1 360/57/1
f 361/13/1 362/19/1 363/22/1 364/57/1
f 365/36/1 366/15/1 367/18/1 368/37/1
f 369/63/1 370/64/1 371/65/1 372/66/1
f 373/64/1 374/58/1 375/61/1 376/65/1
f 377/48/1 378/67/1 379/62/1 380/49/1
f 381/67/1 382/38/1 383/27/1 384/62/1
f 385/7/1 386/8/1 387/9/1 388/10/1
f 389/1/1 390/2/1 391/3/1 392/4/1
f 393/20/1 394/23/1 395/24/1 396/21/1
f 397/13/1 398/19/1 399/22/1 400/57/1
f 401/20/1 402/23/1 403/24/1 404/21/1
f 405/47/1 406/46/1 407/64/1 408/63/1
f 409/46/1 410/49/1 411/58/1 412/64/1
f 413/52/1 414/68/1 415/67/1 416/48/1
f 417/68/1 418/42/1 419/38/1 420/67/1
f 421/7/1 422/8/1 423/9/1 424/10/1
f 425/5/1 426/6/1 427/2/1 428/1/1

