# Tiled2Unity generated file. Do not modify by hand.
# Wavefront file for 'Nuevo_mesh_0002.obj'

# Vertices (Count = 452)
v 0 -32 0
v -32 -32 0
v -32 0 0
v 0 0 0
v -32 -32 0
v -64 -32 0
v -64 0 0
v -32 0 0
v -64 -32 0
v -96 -32 0
v -96 0 0
v -64 0 0
v -96 -32 0
v -128 -32 0
v -128 0 0
v -96 0 0
v -128 -32 0
v -160 -32 0
v -160 0 0
v -128 0 0
v -160 -32 0
v -192 -32 0
v -192 0 0
v -160 0 0
v -192 -32 0
v -224 -32 0
v -224 0 0
v -192 0 0
v -224 -32 0
v -256 -32 0
v -256 0 0
v -224 0 0
v -256 -32 0
v -288 -32 0
v -288 0 0
v -256 0 0
v -288 -32 0
v -320 -32 0
v -320 0 0
v -288 0 0
v -320 -32 0
v -352 -32 0
v -352 0 0
v -320 0 0
v -352 -32 0
v -384 -32 0
v -384 0 0
v -352 0 0
v -384 -32 0
v -416 -32 0
v -416 0 0
v -384 0 0
v -416 -32 0
v -448 -32 0
v -448 0 0
v -416 0 0
v -448 -32 0
v -480 -32 0
v -480 0 0
v -448 0 0
v -480 -32 0
v -512 -32 0
v -512 0 0
v -480 0 0
v -512 -32 0
v -544 -32 0
v -544 0 0
v -512 0 0
v -544 -32 0
v -576 -32 0
v -576 0 0
v -544 0 0
v -576 -32 0
v -608 -32 0
v -608 0 0
v -576 0 0
v -608 -32 0
v -640 -32 0
v -640 0 0
v -608 0 0
v -640 -32 0
v -672 -32 0
v -672 0 0
v -640 0 0
v -672 -32 0
v -704 -32 0
v -704 0 0
v -672 0 0
v -704 -32 0
v -736 -32 0
v -736 0 0
v -704 0 0
v -736 -32 0
v -768 -32 0
v -768 0 0
v -736 0 0
v -768 -32 0
v -800 -32 0
v -800 0 0
v -768 0 0
v 0 -64 0
v -32 -64 0
v -32 -32 0
v 0 -32 0
v -736 -64 0
v -768 -64 0
v -768 -32 0
v -736 -32 0
v -768 -64 0
v -800 -64 0
v -800 -32 0
v -768 -32 0
v 0 -96 0
v -32 -96 0
v -32 -64 0
v 0 -64 0
v -736 -96 0
v -768 -96 0
v -768 -64 0
v -736 -64 0
v -768 -96 0
v -800 -96 0
v -800 -64 0
v -768 -64 0
v 0 -128 0
v -32 -128 0
v -32 -96 0
v 0 -96 0
v -736 -128 0
v -768 -128 0
v -768 -96 0
v -736 -96 0
v -768 -128 0
v -800 -128 0
v -800 -96 0
v -768 -96 0
v 0 -160 0
v -32 -160 0
v -32 -128 0
v 0 -128 0
v -736 -160 0
v -768 -160 0
v -768 -128 0
v -736 -128 0
v -768 -160 0
v -800 -160 0
v -800 -128 0
v -768 -128 0
v 0 -192 0
v -32 -192 0
v -32 -160 0
v 0 -160 0
v -736 -192 0
v -768 -192 0
v -768 -160 0
v -736 -160 0
v -768 -192 0
v -800 -192 0
v -800 -160 0
v -768 -160 0
v 0 -224 0
v -32 -224 0
v -32 -192 0
v 0 -192 0
v -736 -224 0
v -768 -224 0
v -768 -192 0
v -736 -192 0
v -768 -224 0
v -800 -224 0
v -800 -192 0
v -768 -192 0
v 0 -256 0
v -32 -256 0
v -32 -224 0
v 0 -224 0
v -736 -256 0
v -768 -256 0
v -768 -224 0
v -736 -224 0
v -768 -256 0
v -800 -256 0
v -800 -224 0
v -768 -224 0
v 0 -288 0
v -32 -288 0
v -32 -256 0
v 0 -256 0
v -736 -288 0
v -768 -288 0
v -768 -256 0
v -736 -256 0
v -768 -288 0
v -800 -288 0
v -800 -256 0
v -768 -256 0
v 0 -320 0
v -32 -320 0
v -32 -288 0
v 0 -288 0
v -704 -320 0
v -736 -320 0
v -736 -288 0
v -704 -288 0
v -736 -320 0
v -768 -320 0
v -768 -288 0
v -736 -288 0
v -768 -320 0
v -800 -320 0
v -800 -288 0
v -768 -288 0
v 0 -352 0
v -32 -352 0
v -32 -320 0
v 0 -320 0
v -736 -352 0
v -768 -352 0
v -768 -320 0
v -736 -320 0
v -768 -352 0
v -800 -352 0
v -800 -320 0
v -768 -320 0
v 0 -384 0
v -32 -384 0
v -32 -352 0
v 0 -352 0
v -736 -384 0
v -768 -384 0
v -768 -352 0
v -736 -352 0
v -768 -384 0
v -800 -384 0
v -800 -352 0
v -768 -352 0
v 0 -416 0
v -32 -416 0
v -32 -384 0
v 0 -384 0
v -384 -416 0
v -416 -416 0
v -416 -384 0
v -384 -384 0
v -736 -416 0
v -768 -416 0
v -768 -384 0
v -736 -384 0
v -768 -416 0
v -800 -416 0
v -800 -384 0
v -768 -384 0
v 0 -448 0
v -32 -448 0
v -32 -416 0
v 0 -416 0
v -32 -448 0
v -64 -448 0
v -64 -416 0
v -32 -416 0
v -64 -448 0
v -96 -448 0
v -96 -416 0
v -64 -416 0
v -96 -448 0
v -128 -448 0
v -128 -416 0
v -96 -416 0
v -128 -448 0
v -160 -448 0
v -160 -416 0
v -128 -416 0
v -160 -448 0
v -192 -448 0
v -192 -416 0
v -160 -416 0
v -192 -448 0
v -224 -448 0
v -224 -416 0
v -192 -416 0
v -224 -448 0
v -256 -448 0
v -256 -416 0
v -224 -416 0
v -256 -448 0
v -288 -448 0
v -288 -416 0
v -256 -416 0
v -288 -448 0
v -320 -448 0
v -320 -416 0
v -288 -416 0
v -320 -448 0
v -352 -448 0
v -352 -416 0
v -320 -416 0
v -352 -448 0
v -384 -448 0
v -384 -416 0
v -352 -416 0
v -384 -448 0
v -416 -448 0
v -416 -416 0
v -384 -416 0
v -416 -448 0
v -448 -448 0
v -448 -416 0
v -416 -416 0
v -448 -448 0
v -480 -448 0
v -480 -416 0
v -448 -416 0
v -480 -448 0
v -512 -448 0
v -512 -416 0
v -480 -416 0
v -512 -448 0
v -544 -448 0
v -544 -416 0
v -512 -416 0
v -544 -448 0
v -576 -448 0
v -576 -416 0
v -544 -416 0
v -576 -448 0
v -608 -448 0
v -608 -416 0
v -576 -416 0
v -608 -448 0
v -640 -448 0
v -640 -416 0
v -608 -416 0
v -640 -448 0
v -672 -448 0
v -672 -416 0
v -640 -416 0
v -672 -448 0
v -704 -448 0
v -704 -416 0
v -672 -416 0
v -704 -448 0
v -736 -448 0
v -736 -416 0
v -704 -416 0
v -736 -448 0
v -768 -448 0
v -768 -416 0
v -736 -416 0
v -768 -448 0
v -800 -448 0
v -800 -416 0
v -768 -416 0
v 0 -480 0
v -32 -480 0
v -32 -448 0
v 0 -448 0
v -32 -480 0
v -64 -480 0
v -64 -448 0
v -32 -448 0
v -64 -480 0
v -96 -480 0
v -96 -448 0
v -64 -448 0
v -96 -480 0
v -128 -480 0
v -128 -448 0
v -96 -448 0
v -128 -480 0
v -160 -480 0
v -160 -448 0
v -128 -448 0
v -160 -480 0
v -192 -480 0
v -192 -448 0
v -160 -448 0
v -192 -480 0
v -224 -480 0
v -224 -448 0
v -192 -448 0
v -224 -480 0
v -256 -480 0
v -256 -448 0
v -224 -448 0
v -256 -480 0
v -288 -480 0
v -288 -448 0
v -256 -448 0
v -288 -480 0
v -320 -480 0
v -320 -448 0
v -288 -448 0
v -320 -480 0
v -352 -480 0
v -352 -448 0
v -320 -448 0
v -352 -480 0
v -384 -480 0
v -384 -448 0
v -352 -448 0
v -384 -480 0
v -416 -480 0
v -416 -448 0
v -384 -448 0
v -416 -480 0
v -448 -480 0
v -448 -448 0
v -416 -448 0
v -448 -480 0
v -480 -480 0
v -480 -448 0
v -448 -448 0
v -480 -480 0
v -512 -480 0
v -512 -448 0
v -480 -448 0
v -512 -480 0
v -544 -480 0
v -544 -448 0
v -512 -448 0
v -544 -480 0
v -576 -480 0
v -576 -448 0
v -544 -448 0
v -576 -480 0
v -608 -480 0
v -608 -448 0
v -576 -448 0
v -608 -480 0
v -640 -480 0
v -640 -448 0
v -608 -448 0
v -640 -480 0
v -672 -480 0
v -672 -448 0
v -640 -448 0
v -672 -480 0
v -704 -480 0
v -704 -448 0
v -672 -448 0
v -704 -480 0
v -736 -480 0
v -736 -448 0
v -704 -448 0
v -736 -480 0
v -768 -480 0
v -768 -448 0
v -736 -448 0
v -768 -480 0
v -800 -480 0
v -800 -448 0
v -768 -448 0

# Texture cooridinates (Count = 17)
vt 0 0.25
vt 0.03125 0.25
vt 0.03125 0.28125
vt 0 0.28125
vt 0.03125 0.21875
vt 0.0625 0.21875
vt 0.0625 0.25
vt 0.0625 0.125
vt 0.09375 0.125
vt 0.09375 0.15625
vt 0.0625 0.15625
vt 0 0.21875
vt 0.40625 0.6875
vt 0.4375 0.6875
vt 0.4375 0.71875
vt 0.40625 0.71875
vt 0.0625 0.28125

# Normal
vn 0 0 -1

# Mesh description
g Nuevo_mesh_0002

# Faces
f 1/1/1 2/2/1 3/3/1 4/4/1
f 5/5/1 6/6/1 7/7/1 8/2/1
f 9/5/1 10/6/1 11/7/1 12/2/1
f 13/5/1 14/6/1 15/7/1 16/2/1
f 17/5/1 18/6/1 19/7/1 20/2/1
f 21/5/1 22/6/1 23/7/1 24/2/1
f 25/5/1 26/6/1 27/7/1 28/2/1
f 29/5/1 30/6/1 31/7/1 32/2/1
f 33/5/1 34/6/1 35/7/1 36/2/1
f 37/5/1 38/6/1 39/7/1 40/2/1
f 41/5/1 42/6/1 43/7/1 44/2/1
f 45/5/1 46/6/1 47/7/1 48/2/1
f 49/5/1 50/6/1 51/7/1 52/2/1
f 53/5/1 54/6/1 55/7/1 56/2/1
f 57/5/1 58/6/1 59/7/1 60/2/1
f 61/5/1 62/6/1 63/7/1 64/2/1
f 65/5/1 66/6/1 67/7/1 68/2/1
f 69/5/1 70/6/1 71/7/1 72/2/1
f 73/5/1 74/6/1 75/7/1 76/2/1
f 77/5/1 78/6/1 79/7/1 80/2/1
f 81/5/1 82/6/1 83/7/1 84/2/1
f 85/5/1 86/6/1 87/7/1 88/2/1
f 89/5/1 90/6/1 91/7/1 92/2/1
f 93/5/1 94/6/1 95/7/1 96/2/1
f 97/8/1 98/9/1 99/10/1 100/11/1
f 101/12/1 102/5/1 103/2/1 104/1/1
f 105/13/1 106/14/1 107/15/1 108/16/1
f 109/13/1 110/14/1 111/15/1 112/16/1
f 113/12/1 114/5/1 115/2/1 116/1/1
f 117/13/1 118/14/1 119/15/1 120/16/1
f 121/13/1 122/14/1 123/15/1 124/16/1
f 125/1/1 126/2/1 127/3/1 128/4/1
f 129/13/1 130/14/1 131/15/1 132/16/1
f 133/13/1 134/14/1 135/15/1 136/16/1
f 137/12/1 138/5/1 139/2/1 140/1/1
f 141/13/1 142/14/1 143/15/1 144/16/1
f 145/13/1 146/14/1 147/15/1 148/16/1
f 149/1/1 150/2/1 151/3/1 152/4/1
f 153/13/1 154/14/1 155/15/1 156/16/1
f 157/5/1 158/6/1 159/7/1 160/2/1
f 161/12/1 162/5/1 163/2/1 164/1/1
f 165/13/1 166/14/1 167/15/1 168/16/1
f 169/5/1 170/6/1 171/7/1 172/2/1
f 173/1/1 174/2/1 175/3/1 176/4/1
f 177/13/1 178/14/1 179/15/1 180/16/1
f 181/2/1 182/7/1 183/17/1 184/3/1
f 185/1/1 186/2/1 187/3/1 188/4/1
f 189/13/1 190/14/1 191/15/1 192/16/1
f 193/5/1 194/6/1 195/7/1 196/2/1
f 197/1/1 198/2/1 199/3/1 200/4/1
f 201/13/1 202/14/1 203/15/1 204/16/1
f 205/13/1 206/14/1 207/15/1 208/16/1
f 209/2/1 210/7/1 211/17/1 212/3/1
f 213/13/1 214/14/1 215/15/1 216/16/1
f 217/13/1 218/14/1 219/15/1 220/16/1
f 221/5/1 222/6/1 223/7/1 224/2/1
f 225/13/1 226/14/1 227/15/1 228/16/1
f 229/13/1 230/14/1 231/15/1 232/16/1
f 233/2/1 234/7/1 235/17/1 236/3/1
f 237/13/1 238/14/1 239/15/1 240/16/1
f 241/13/1 242/14/1 243/15/1 244/16/1
f 245/13/1 246/14/1 247/15/1 248/16/1
f 249/5/1 250/6/1 251/7/1 252/2/1
f 253/13/1 254/14/1 255/15/1 256/16/1
f 257/13/1 258/14/1 259/15/1 260/16/1
f 261/13/1 262/14/1 263/15/1 264/16/1
f 265/13/1 266/14/1 267/15/1 268/16/1
f 269/13/1 270/14/1 271/15/1 272/16/1
f 273/13/1 274/14/1 275/15/1 276/16/1
f 277/13/1 278/14/1 279/15/1 280/16/1
f 281/13/1 282/14/1 283/15/1 284/16/1
f 285/13/1 286/14/1 287/15/1 288/16/1
f 289/13/1 290/14/1 291/15/1 292/16/1
f 293/13/1 294/14/1 295/15/1 296/16/1
f 297/13/1 298/14/1 299/15/1 300/16/1
f 301/13/1 302/14/1 303/15/1 304/16/1
f 305/13/1 306/14/1 307/15/1 308/16/1
f 309/13/1 310/14/1 311/15/1 312/16/1
f 313/13/1 314/14/1 315/15/1 316/16/1
f 317/13/1 318/14/1 319/15/1 320/16/1
f 321/13/1 322/14/1 323/15/1 324/16/1
f 325/13/1 326/14/1 327/15/1 328/16/1
f 329/13/1 330/14/1 331/15/1 332/16/1
f 333/13/1 334/14/1 335/15/1 336/16/1
f 337/13/1 338/14/1 339/15/1 340/16/1
f 341/13/1 342/14/1 343/15/1 344/16/1
f 345/13/1 346/14/1 347/15/1 348/16/1
f 349/2/1 350/7/1 351/17/1 352/3/1
f 353/8/1 354/9/1 355/10/1 356/11/1
f 357/8/1 358/9/1 359/10/1 360/11/1
f 361/8/1 362/9/1 363/10/1 364/11/1
f 365/8/1 366/9/1 367/10/1 368/11/1
f 369/8/1 370/9/1 371/10/1 372/11/1
f 373/8/1 374/9/1 375/10/1 376/11/1
f 377/8/1 378/9/1 379/10/1 380/11/1
f 381/8/1 382/9/1 383/10/1 384/11/1
f 385/8/1 386/9/1 387/10/1 388/11/1
f 389/8/1 390/9/1 391/10/1 392/11/1
f 393/8/1 394/9/1 395/10/1 396/11/1
f 397/8/1 398/9/1 399/10/1 400/11/1
f 401/8/1 402/9/1 403/10/1 404/11/1
f 405/8/1 406/9/1 407/10/1 408/11/1
f 409/8/1 410/9/1 411/10/1 412/11/1
f 413/8/1 414/9/1 415/10/1 416/11/1
f 417/8/1 418/9/1 419/10/1 420/11/1
f 421/8/1 422/9/1 423/10/1 424/11/1
f 425/8/1 426/9/1 427/10/1 428/11/1
f 429/8/1 430/9/1 431/10/1 432/11/1
f 433/8/1 434/9/1 435/10/1 436/11/1
f 437/8/1 438/9/1 439/10/1 440/11/1
f 441/8/1 442/9/1 443/10/1 444/11/1
f 445/8/1 446/9/1 447/10/1 448/11/1
f 449/8/1 450/9/1 451/10/1 452/11/1

