# Tiled2Unity generated file. Do not modify by hand.
# Wavefront file for 'MapaFinal_mesh_0002.obj'

# Vertices (Count = 32)
v -32 -160 0
v -64 -160 0
v -64 -128 0
v -32 -128 0
v -736 -160 0
v -768 -160 0
v -768 -128 0
v -736 -128 0
v -32 -192 0
v -64 -192 0
v -64 -160 0
v -32 -160 0
v -736 -192 0
v -768 -192 0
v -768 -160 0
v -736 -160 0
v -32 -288 0
v -64 -288 0
v -64 -256 0
v -32 -256 0
v -736 -288 0
v -768 -288 0
v -768 -256 0
v -736 -256 0
v -32 -320 0
v -64 -320 0
v -64 -288 0
v -32 -288 0
v -736 -320 0
v -768 -320 0
v -768 -288 0
v -736 -288 0

# Texture cooridinates (Count = 6)
vt 0.09375 0.78125
vt 0.125 0.78125
vt 0.125 0.8125
vt 0.09375 0.8125
vt 0.09375 0.75
vt 0.125 0.75

# Normal
vn 0 0 -1

# Mesh description
g MapaFinal_mesh_0002

# Faces
f 1/1/1 2/2/1 3/3/1 4/4/1
f 5/1/1 6/2/1 7/3/1 8/4/1
f 9/5/1 10/6/1 11/2/1 12/1/1
f 13/5/1 14/6/1 15/2/1 16/1/1
f 17/1/1 18/2/1 19/3/1 20/4/1
f 21/1/1 22/2/1 23/3/1 24/4/1
f 25/5/1 26/6/1 27/2/1 28/1/1
f 29/5/1 30/6/1 31/2/1 32/1/1

